<?xml version="1.0" encoding="UTF-8" standalone="no"?> <!-- Created with Vectornator for iOS (http://vectornator.io/) --><!DOCTYPE svg PUBLIC "-//W3C//DTD SVG 1.1//EN" "http://www.w3.org/Graphics/SVG/1.1/DTD/svg11.dtd">
<svg height="100%" style="fill-rule:nonzero;clip-rule:evenodd;stroke-linecap:round;stroke-linejoin:round;" xmlns:xlink="http://www.w3.org/1999/xlink" xmlns="http://www.w3.org/2000/svg" xml:space="preserve" width="100%" xmlns:vectornator="http://vectornator.io" version="1.1" viewBox="0 0 1024 1024">
<metadata>
<vectornator:setting key="DimensionsVisible" value="1"/>
<vectornator:setting key="PencilOnly" value="0"/>
<vectornator:setting key="SnapToPoints" value="0"/>
<vectornator:setting key="GuidesVisible" value="1"/>
<vectornator:setting key="CMYKEnabledKey" value="0"/>
<vectornator:setting key="RulersVisible" value="1"/>
<vectornator:setting key="OutlineMode" value="0"/>
<vectornator:setting key="SnapToEdges" value="0"/>
<vectornator:setting key="DisplayWhiteBackground" value="0"/>
<vectornator:setting key="doHistoryDisabled" value="0"/>
<vectornator:setting key="SnapToGuides" value="1"/>
<vectornator:setting key="TimeLapseWatermarkDisabled" value="0"/>
<vectornator:setting key="Units" value="Pixels"/>
<vectornator:setting key="SnapToGrid" value="0"/>
<vectornator:setting key="IsolateActiveLayer" value="0"/>
<vectornator:setting key="DynamicGuides" value="0"/>
</metadata>
<defs/>
<g id="图层 1" vectornator:layerName="图层 1">
<g opacity="1">
<path d="M295.34+196.282C291.804+201.94+288.703+210.773+290.855+217.588C293.084+224.647+299.532+230.479+302.069+237.772C311.905+266.052+313.397+297.12+325.057+324.678C327.761+331.07+329.81+335.933+334.588+340.938C343.535+350.311+356.646+352.868+367.108+360.001C374.839+365.272+380.755+373.648+387.293+380.186C394.867+387.761+403.801+393.259+410.281+402.053C436.179+437.2+440.551+480.443+443.361+522.6C444.551+540.445+445.128+559.107+439.997+576.426C433.244+599.216+418.63+616.129+404.674+634.737C397.684+644.056+390.536+653.515+382.807+662.21C371.238+675.226+350.077+679.624+333.467+679.031C325.31+678.739+316.868+675.033+309.358+672.303C306.342+671.206+301.284+670.207+299.265+667.256C295.564+661.847+295.583+652.226+294.219+645.95C289.799+625.619+289.159+605.67+283.566+585.397C279.054+569.038+267.002+553.535+279.641+537.178C287.49+527.02+306.887+521.731+318.889+516.993C336.205+510.158+352.85+503.358+371.033+499.051C391.45+494.215+412.515+491.29+432.708+485.595C449.613+480.827+466.264+472.449+482.048+464.849C497.41+457.453+511.236+448.381+528.585+447.468C531.627+447.308+536.497+446.957+539.238+445.225C544.248+442.062+547.764+436.035+553.255+433.451C554.814+432.717+556.695+432.954+558.301+432.33C561.807+430.966+565.03+428.966+568.394+427.284C570.115+426.423+571.719+425.341+573.44+424.48C575.086+423.657+576.787+421.529+578.486+422.237C580.123+422.919+580.079+425.513+580.168+427.284C580.272+429.371+579.357+431.385+579.047+433.451C577.056+446.723+575.727+460.403+576.243+473.82C577.126+496.78+582.66+520.4+587.457+542.785C589.159+550.729+591.798+558.78+592.503+566.894C594.443+589.198+583.616+614.53+592.503+635.858C599.02+651.499+613.121+657.059+629.508+654.921C660.125+650.928+674.782+614.249+685.016+589.882C693.904+568.721+697.995+546.056+702.958+523.721C712.649+480.112+721.551+436.612+728.749+392.521C730.487+381.877+732.138+371.219+733.796+360.562C735.998+346.401+738.407+332.299+738.842+317.95C738.921+315.335+739.068+312.707+738.842+310.101C738.692+308.384+739.054+306.146+737.72+305.054C736.418+303.989+733.751+303.762+732.674+305.054C731.233+306.783+732.203+309.534+732.113+311.783C732.016+314.21+732.424+316.662+732.113+319.072C729.925+336.036+723.132+353.444+717.536+369.533C709.645+392.219+705.364+412.865+710.807+436.815C713.754+449.78+721.621+461.045+726.507+473.26C733.359+490.391+740.123+510.905+757.905+519.796C762.53+522.109+768.574+522.763+773.604+523.721C794.054+527.616+806.67+520.597+823.505+509.704C829.607+505.756+836.546+502.116+838.643+494.566C841.239+485.22+839.765+473.27+839.765+463.728C839.765+443.755+836.712+425.865+828.551+407.66C824.43+398.466+820.017+389.273+815.655+380.186C814.411+377.594+810.669+370.987+808.367+369.533C806+368.039+798.518+368.226+796.031+368.972C793.196+369.823+787.994+373.903+785.939+375.701C772.802+387.195+770.984+404.939+768.558+421.116C760.337+475.923+767.699+532.225+776.968+586.518C780.683+608.276+787.465+629.537+792.667+650.997C794.388+658.094+796.162+665.165+797.714+672.303C798.118+674.165+797.249+678.967+798.835+677.909C801.099+676.4+800.544+672.728+801.078+670.06C801.482+668.036+801.459+665.949+801.638+663.892C802.438+654.697+803.32+645.664+803.32+636.419" opacity="1" fill="#2385cc"/>
<path d="" opacity="1" fill="none"/>
</g>
<g opacity="1">
<path d="M803.32+633.615C796.908+643.233+797.867+655.158+800.517+666.135C800.924+667.82+802.429+677.461+806.684+677.909C809.101+678.164+811.695+676.824+813.413+675.106C819.866+668.653+823.036+650.413+825.187+642.026C829.401+625.591+835.393+609.639+839.765+593.246C852.633+544.99+858.358+494.537+875.649+447.468C878.936+438.519+883.044+429.339+886.862+420.555C887.763+418.484+887.461+414.878+889.666+414.388C891.463+413.989+891.529+417.633+891.908+419.434C892.293+421.263+891.986+423.173+891.908+425.041C891.399+437.261+889.559+449.314+888.544+461.485C885.927+492.888+886.742+517.863+905.365+544.467C919.095+564.081+944.049+571.806+956.387+592.685C960.797+600.148+961.683+611.193+961.994+619.598C963+646.764+950.143+673.718+935.642+695.851C907.052+739.488+864.685+778.427+817.898+801.821C795.854+812.843+770.575+819.227+746.131+822.005C738.686+822.851+728.148+823.273+721.46+819.202C714.974+815.254+710.478+806.381+708.004+800.139C703.94+789.881+702.514+778.631+701.837+767.619C701.435+761.09+701.401+754.522+701.837+747.995C702.524+737.678+703.391+727.338+705.201+717.157C709.025+695.646+718.925+674.651+729.871+656.043C745.067+630.21+766.298+607.172+785.378+584.275" opacity="1" fill="#2385cc"/>
<path d="" opacity="1" fill="none"/>
</g>
<g opacity="1">
<path d="M868.92+516.432C876.787+514.185+884.419+513.154+892.469+511.947C909.965+509.322+926.69+504.883+944.613+505.779C956.49+506.373+967.239+510.602+979.375+510.265C988.899+510+1002.41+506.244+1011.33+507.461C1013.16+507.71+1015.36+508.173+1016.38+509.704C1019.17+513.882+1014.85+521.263+1013.58+524.282C1010.52+531.501+1007.08+538.629+1003.48+545.588C997.021+558.084+989.776+570.412+983.861+583.154C979.136+593.329+974.712+603.079+968.161+612.309C959.842+624.033+950.351+635.386+941.249+646.511C913.409+680.537+879.285+712.396+841.447+735.099C818.408+748.922+793.389+759.591+769.119+770.983C750.105+779.908+731.058+788.795+711.368+796.214C688.132+804.969+664.654+812.667+641.843+822.566C597.412+841.848+545.618+874.958+495.505+855.086C472.576+845.993+454.758+831.795+435.512+816.959C414.568+800.815+398.651+787.828+384.489+764.815C379.994+757.511+373.276+749.723+373.276+740.706C373.276+721.096+386.099+705.565+399.628+692.487C420.926+671.898+450.088+657.255+478.684+649.875C491.384+646.598+506.671+642.278+519.614+647.072C535.355+652.902+546.077+669.929+552.134+684.638C565.553+717.227+568.14+752.953+565.59+787.803C563.616+814.785+558.098+841.71+546.527+866.299C538.914+882.477+530.45+899.293+517.932+912.275C508.114+922.458+493.904+929.055+481.488+935.263C452.293+949.861+414.181+957.545+381.686+955.448C367.85+954.555+354.717+950.165+341.317+947.038C328.836+944.126+316.347+942.481+303.751+940.31C293.127+938.478+283.741+936.315+274.595+930.217C266.96+925.127+260.263+918.613+252.728+913.397C242.932+906.615+231.653+902.135+221.891+895.455C216.468+891.745+203.241+879.551+203.949+872.467C204.288+869.077+208.039+862.89+209.556+860.132C212.701+854.414+215.491+848.801+217.966+842.751C218.728+840.887+219.428+838.999+220.209+837.144C220.923+835.447+220.805+831.274+222.452+832.098C224.998+833.371+224.543+837.401+225.816+839.947C227.35+843.016+229.043+846.009+230.862+848.918C233.841+853.685+237.985+857.592+242.636+860.692C250.633+866.024+259.42+869.644+267.867+874.149C283.869+882.684+299.711+890.334+317.207+895.455C335.447+900.793+354.341+904.542+372.715+909.472C394.224+915.243+416.62+920.158+438.876+921.807C452.982+922.852+467.342+922.815+481.488+923.489C507.284+924.717+533.69+925.007+559.423+922.368C578.503+920.411+594.506+912.585+611.566+904.426C615.877+902.364+621.491+896.471+626.705+897.698C628.421+898.101+629.595+899.75+631.19+900.501C638.925+904.141+643.501+905.302+650.254+911.154C653.441+913.916+657.877+921.122+662.028+922.368C664.355+923.066+666.887+922.368+669.317+922.368" opacity="1" fill="#2385cc"/>
<path d="" opacity="1" fill="none"/>
</g>
<g opacity="1">
<path d="M561.105+208.617C582.857+212.967+602.398+200.506+621.659+192.357C634.097+187.094+646.78+182.483+659.225+177.218C671.914+171.85+684.586+165.714+697.912+162.08C711.121+158.477+723.663+159.816+737.16+159.277C740.913+159.126+744.637+157.762+748.373+158.155C752.025+158.54+755.433+160.202+759.026+160.959C762.756+161.744+766.954+161.269+770.24+163.201C773.773+165.28+775.507+169.857+779.211+171.612C782.529+173.183+786.433+173.108+789.864+174.415C792.519+175.426+801.263+179.339+803.881+180.022C809.857+181.581+816.307+180.038+822.384+181.143C828.302+182.219+835.277+184.613+840.886+186.75C846.694+188.963+851.29+193.167+856.585+196.282C867.147+202.494+876.776+209.074+884.059+219.27C892.132+230.573+898.183+243.54+905.926+255.154" opacity="1" fill="#2385cc"/>
<path d="" opacity="1" fill="none"/>
</g>
<g opacity="1">
<path d="M567.272+332.528C568.207+330.472+568.773+328.205+570.076+326.36C571.069+324.953+572.924+324.342+574.001+322.996C577.841+318.195+579.864+312.584+584.093+307.858C591.487+299.594+601.264+294.202+610.445+288.234C615.942+284.661+621.251+280.875+627.266+278.142C633.271+275.412+639.744+274.685+645.768+271.974C647.486+271.201+654.342+267.506+656.421+266.928C661.165+265.61+667.228+265.458+672.12+264.685C673.792+264.421+676.034+262.867+677.166+264.124C678.542+265.653+677.457+268.257+677.166+270.292C676.627+274.066+675.285+277.711+674.924+281.506C673.896+292.297+674.371+303.214+673.802+314.025C673.562+318.584+674.116+326.607+670.438+330.285C669.184+331.539+667.074+331.407+665.392+331.967" opacity="1" fill="#cc5123"/>
<path d="" opacity="1" fill="none"/>
</g>
<g opacity="1">
<path d="M627.826+370.654C623.229+384.447+628.578+394.335+631.751+407.66C633.476+414.906+634.181+417.753+639.04+423.359C641.391+426.072+644.169+428.629+647.45+430.087C649.132+430.835+650.797+433.038+652.496+432.33C655.347+431.142+653.11+420.171+655.86+417.191C659.458+413.294+666.949+414.378+666.513+406.538C666.411+404.7+663.563+403.191+664.271+401.492C664.953+399.855+668.182+401.172+669.317+399.81C670.4+398.51+669.691+396.446+669.878+394.764" opacity="1" fill="#cc5123"/>
<path d="" opacity="1" fill="none"/>
</g>
<g opacity="1">
<path d="M669.878+473.82C664.208+486.576+673.499+497.857+685.016+502.976" opacity="1" fill="#cc5123"/>
<path d="" opacity="1" fill="none"/>
</g>
<g opacity="1">
<path d="M704.079+605.581C699.933+612.215+701.932+618.922+699.594+626.326C697.58+632.703+693.208+636.613+688.38+640.904" opacity="1" fill="#cc5123"/>
<path d="" opacity="1" fill="none"/>
</g>
<g opacity="1">
<path d="M655.3+682.956C666.495+692.752+681.297+699.215+696.23+699.215" opacity="1" fill="#cc5123"/>
<path d="" opacity="1" fill="none"/>
</g>
<g opacity="1">
<path d="M613.809+748.556C612.688+750.238+610.326+751.584+610.445+753.602C610.562+755.585+612.965+756.682+614.37+758.087C618.52+762.237+623.775+766.541+629.508+768.18C639.839+771.131+647.562+766.442+656.421+762.012C662.239+759.103+668.454+756.89+674.363+754.162" opacity="1" fill="#cc5123"/>
<path d="" opacity="1" fill="none"/>
</g>
<g opacity="1">
<path d="M842.568+875.27C863.982+882.408+878.909+869.172+895.833+857.889" opacity="1" fill="#cc5123"/>
<path d="" opacity="1" fill="none"/>
</g>
<g opacity="1">
<path d="M936.763+795.653C941.294+796.156+943.417+795.61+946.855+799.578C950.126+803.352+950.542+811.243+951.341+815.838C953.212+826.596+955.254+837.241+958.069+847.797" opacity="1" fill="#cc5123"/>
<path d="" opacity="1" fill="none"/>
</g>
<g opacity="1">
<path d="M970.965+726.128C974.111+731.162+977.865+736.564+979.375+742.388C983.49+758.259+981.689+776.122+982.179+792.289C982.814+813.269+984.076+834.757+981.618+855.646" opacity="1" fill="#cc5123"/>
<path d="" opacity="1" fill="none"/>
</g>
<g opacity="1">
<path d="M892.469+810.792C902.175+821.71+904.279+840.211+903.683+854.525C903.319+863.256+901.608+871.718+900.319+880.316C899.234+887.545+900.234+895.192+897.515+902.183C895.456+907.479+894.24+905.966+891.348+910.593C885.627+919.747+879.935+930.56+870.602+936.945C862.581+942.434+852.636+944.95+844.25+949.841" opacity="1" fill="#cc5123"/>
<path d="" opacity="1" fill="none"/>
</g>
<g opacity="1">
<path d="M750.616+879.195C741.951+889.304+736.55+892.283+723.143+893.773" opacity="1" fill="#cc5123"/>
<path d="" opacity="1" fill="none"/>
</g>
<g opacity="1">
<path d="M457.378+572.501C455.883+571.566+452.717+571.452+452.893+569.697C453.084+567.783+456.312+567.921+457.939+566.894C459.868+565.676+461.731+564.352+463.546+562.969C469.907+558.123+475.726+553.082+482.609+548.952" opacity="1" fill="#cc5123"/>
<path d="" opacity="1" fill="none"/>
</g>
<g opacity="1">
<path d="M175.915+480.549C174.233+480.362+169.811+481.309+170.869+479.988C172.457+478.003+175.849+478.81+178.157+477.745C180.748+476.55+183.089+474.867+185.446+473.26C192.17+468.675+198.482+463.452+205.07+458.682C226.777+442.963+249.68+430.522+274.595+420.555" opacity="1" fill="#cc5123"/>
<path d="" opacity="1" fill="none"/>
</g>
<g opacity="1">
<path d="M477.002+184.507C467.449+203.614+450.897+216.78+436.072+231.605C425.006+242.671+414.998+255.285+405.235+267.489" opacity="1" fill="#cc5123"/>
<path d="" opacity="1" fill="none"/>
</g>
<g opacity="1">
<path d="M189.371+368.972C169.02+380.602+156.275+402.246+142.274+420.555C137.085+427.34+130.907+433.143+129.939+441.861" opacity="1" fill="#cc5123"/>
<path d="" opacity="1" fill="none"/>
</g>
<g opacity="1">
<path d="M284.127+484.473C292.773+488.316+301.596+490.842+311.04+487.837C315.026+486.569+317.526+483.72+320.571+481.109C327.417+475.241+333.674+469.362+339.635+462.607C345.76+455.665+352.622+449.366+358.698+442.422C378.678+419.587+397.771+396.675+420.934+376.822" opacity="1" fill="#cc2323"/>
<path d="" opacity="1" fill="none"/>
</g>
<g opacity="1">
<path d="M534.192+234.969C534.192+233.1+534.006+231.222+534.192+229.362C534.382+227.466+536.76+224.996+535.313+223.755C533.916+222.557+531.756+224.915+530.267+225.998C527.593+227.943+525.43+230.508+522.978+232.726C513.162+241.608+503.245+250.383+493.262+259.078C487.667+263.951+482.353+269.172+476.441+273.656C455.75+289.353+431.552+300.257+410.281+315.147" opacity="1" fill="#cc2323"/>
<path d="" opacity="1" fill="none"/>
</g>
<g opacity="1">
<path d="M207.874+339.256C206.005+339.63+204.121+339.936+202.267+340.378C200.194+340.871+196.099+339.929+196.099+342.06C196.099+344.124+200.259+343.098+202.267+342.62C204.387+342.115+206.095+340.516+207.874+339.256C222.084+329.19+234.756+317.002+248.804+306.736C278.16+285.284+308.095+264.608+336.831+242.258" opacity="1" fill="#cc2323"/>
<path d="" opacity="1" fill="none"/>
</g>
<g opacity="1">
<path d="M528.585+105.451C537.3+97.825+546.616+92.1792+556.619+86.3876C558.285+85.4235+560.675+85.2341+561.665+83.5842C562.627+81.9815+563.039+79.245+561.665+77.9773C559.859+76.31+556.829+77.0251+554.377+76.8559C547.317+76.3691+540.58+77.6316+533.631+78.538C522.131+80.0381+510.873+83.359+499.43+85.2662C482.423+88.1006+465.017+89.4422+447.847+90.8731C412.412+93.8259+376.22+97.3208+341.877+107.133C257.099+131.355+166.035+185.204+125.453+266.367C117.342+282.59+114.943+301.276+113.118+319.072C109.131+357.943+117.067+399.094+133.303+434.572C142.387+454.424+158.977+470.464+166.383+491.202C176.666+519.995+180.445+551.706+182.643+582.032C184.885+612.967+185.585+644.158+183.764+675.106C183.556+678.656+183.507+682.216+183.204+685.759C182.946+688.762+183.754+692.222+182.082+694.73C181.025+696.316+178.214+696.633+176.475+695.851C173.942+694.711+172.341+692.04+170.869+689.684C167.193+683.803+168.065+681.567+168.065+675.106C168.065+666.975+169.468+659.095+169.747+650.997C170.063+641.844+169.747+632.681+169.747+623.523C169.747+601.421+167.264+579.449+166.944+557.362C166.313+513.816+173.956+470.242+174.793+426.723C175.389+395.77+171.316+365.189+171.99+334.21C172.497+310.864+177.411+286.577+168.626+264.124C163.938+252.145+154.891+244.165+142.274+241.136C136.125+239.661+129.135+241.325+123.21+239.454C119.026+238.133+110.784+234.075+113.118+228.241C114.052+225.906+116.43+224.455+118.164+222.634C121.72+218.9+125.291+215.181+128.817+211.42C132.071+207.949+135.688+204.829+138.91+201.328C145.218+194.471+150.76+186.032+157.973+180.022C162.611+176.156+167.81+174.18+170.308+168.247C173.908+159.696+178.275+138.67+166.383+134.046C163.069+132.757+159.156+134.437+155.73+133.485C153.957+132.992+152.355+130.471+150.684+131.242C148.856+132.086+148.801+134.869+148.441+136.849C147.818+140.277+148.704+147.016+149.563+150.306C151.871+159.156+164.416+180.037+175.354+179.461C180.374+179.197+184.101+171.473+186.568+168.247C190.513+163.088+194.357+159.561+200.585+157.594C206.474+155.735+216.493+156.274+222.452+158.155C226.121+159.314+229.027+162.199+232.544+163.762C234.164+164.482+236.115+164.461+237.59+165.444C240.393+167.313+242.682+171.636+246+171.051C249.574+170.42+251.981+166.939+254.971+164.883C259.164+162.001+270.674+155.601+267.867+149.184C267.125+147.489+265.25+146.568+263.942+145.259" opacity="1" fill="#cc2323"/>
<path d="" opacity="1" fill="none"/>
</g>
<g opacity="1">
<path d="M234.226+713.793C246.403+716.499+261.44+728.282+265.064+740.706C266.727+746.408+267.458+752.348+268.988+758.087C271.303+766.767+275.035+774.649+274.595+783.879C274.361+788.79+272.962+793.578+272.352+798.456" opacity="1" fill="#cc2323"/>
<path d="" opacity="1" fill="none"/>
</g>
<g opacity="1">
<path d="M170.869+773.786C166.984+780.001+168.408+784.135+169.747+791.168C172.519+805.717+181.586+815.111+191.053+825.93" opacity="1" fill="#cc2323"/>
<path d="" opacity="1" fill="none"/>
</g>
<g opacity="1">
<path d="M352.53+813.034C353.207+819.127+354.116+824.823+353.091+830.976C350.728+845.154+343.408+857.693+337.952+870.785" opacity="1" fill="#cc2323"/>
<path d="" opacity="1" fill="none"/>
</g>
<g opacity="1">
<path d="M501.672+480.549C502.981+481.67+504.992+482.299+505.597+483.913C506.257+485.671+505.223+487.651+505.036+489.52" opacity="1" fill="#cc2323"/>
<path d="" opacity="1" fill="none"/>
</g>
<g opacity="1">
<path d="M508.4+496.248C509.81+502.589+508.778+505.49+506.158+511.386" opacity="1" fill="#cc2323"/>
<path d="" opacity="1" fill="none"/>
</g>
<g opacity="1">
<path d="M512.886+514.75C513.696+522.037+515.689+528.691+515.689+536.056" opacity="1" fill="#cc2323"/>
<path d="" opacity="1" fill="none"/>
</g>
<g opacity="1">
<path d="M527.464+471.017C523.825+479.203+522.723+487.992+519.053+496.248" opacity="1" fill="#cc2323"/>
<path d="" opacity="1" fill="none"/>
</g>
<g opacity="1">
<path d="M533.631+483.913C542.859+489.039+553.576+487.277+563.908+487.277" opacity="1" fill="#cc2323"/>
<path d="" opacity="1" fill="none"/>
</g>
<g opacity="1">
<path d="M529.146+501.294C535.517+502.002+540.765+500.105+547.088+499.051" opacity="1" fill="#cc2323"/>
<path d="" opacity="1" fill="none"/>
</g>
<g opacity="1">
<path d="M529.146+523.161C538.832+524.129+549.984+519.51+559.423+516.993" opacity="1" fill="#cc2323"/>
<path d="" opacity="1" fill="none"/>
</g>
<g opacity="1">
<path d="M542.602+508.583C543.893+512.887+545.764+517.051+546.527+521.479C548.724+534.223+547.895+547.805+549.33+560.726" opacity="1" fill="#cc2323"/>
<path d="" opacity="1" fill="none"/>
</g>
<g opacity="1">
<path d="M525.221+546.149C524.029+550.123+523.539+554.334+523.539+558.484" opacity="1" fill="#cc2323"/>
<path d="" opacity="1" fill="none"/>
</g>
<g opacity="1">
<path d="M556.059+538.86C567.553+541.733+569.892+547.651+574.561+557.923" opacity="1" fill="#cc2323"/>
<path d="" opacity="1" fill="none"/>
</g>
<g opacity="1">
<path d="M521.296+520.918C514.767+525.996+511.796+532.513+506.718+538.86C500.818+546.235+493.738+552.962+487.094+559.605" opacity="1" fill="#cc2323"/>
<path d="" opacity="1" fill="none"/>
</g>
<g opacity="1">
<path d="M525.782+505.219C524.1+506.34+521.815+506.874+520.736+508.583C519.404+510.691+519.797+513.492+519.053+515.872C517.925+519.484+516.457+522.981+515.129+526.525C510.936+537.704+506.568+548.842+502.794+560.166" opacity="1" fill="#cc2323"/>
<path d="" opacity="1" fill="none"/>
</g>
<g opacity="1">
<path d="M538.677+481.109C534.756+492.873+536.752+505.264+535.874+517.554C535.06+528.951+533.071+540.302+533.071+551.755" opacity="1" fill="#cc2323"/>
<path d="" opacity="1" fill="none"/>
</g>
<g opacity="1">
<path d="M533.631+473.82C532.51+472.325+532.132+469.459+530.267+469.335C528.141+469.193+526.684+471.71+525.221+473.26C520.986+477.744+517.176+483.987+513.447+488.959C500.303+506.484+488.297+524.822+477.563+543.906" opacity="1" fill="#cc2323"/>
<path d="" opacity="1" fill="none"/>
</g>
<g opacity="1">
<path d="M530.828+513.068C530.828+533.155+537.536+554.658+542.042+574.183" opacity="1" fill="#cc2323"/>
<path d="" opacity="1" fill="none"/>
</g>
<g opacity="1">
<path d="M547.088+542.785C547.088+564.324+555.407+581.834+549.891+603.899" opacity="1" fill="#cc2323"/>
<path d="" opacity="1" fill="none"/>
</g>
<g opacity="1">
<path d="M508.4+589.321C503.623+594.099+502.033+599.37+497.747+604.46C490.4+613.185+481.675+620.408+474.199+629.13" opacity="1" fill="#cc2323"/>
<path d="" opacity="1" fill="none"/>
</g>
<g opacity="1">
<path d="M553.816+607.824C558.795+613.514+561.495+617.234+563.348+624.644" opacity="1" fill="#cc2323"/>
<path d="" opacity="1" fill="none"/>
</g>
<g opacity="1">
<path d="M571.758+631.373C571.758+638.355+570.979+642.852+568.394+649.314" opacity="1" fill="#cc2323"/>
<path d="" opacity="1" fill="none"/>
</g>
<g opacity="1">
<path d="M520.175+582.032C518.867+580.724+517.905+577.28+516.25+578.108C514.57+578.948+516.442+581.873+516.811+583.714C517.993+589.624+519.843+593.796+519.614+599.974C519.22+610.613+515.115+619.64+511.765+629.691" opacity="1" fill="#cc2323"/>
<path d="" opacity="1" fill="none"/>
</g>
<g opacity="1">
<path d="M568.394+634.176C567.833+635.858+566.638+637.451+566.712+639.222C566.832+642.121+568.594+644.753+568.954+647.632C569.348+650.785+568.954+653.987+568.954+657.164" opacity="1" fill="#cc2323"/>
<path d="" opacity="1" fill="none"/>
</g>
<g opacity="1">
<path d="M543.163+302.812C548.806+294.347+555.107+286.388+561.105+278.142" opacity="1" fill="#cc2323"/>
<path d="" opacity="1" fill="none"/>
</g>
<g opacity="1">
<path d="M549.891+260.2C546.26+271.092+547.865+283.57+545.966+294.962C544.318+304.85+538.433+314.826+533.631+323.557C531.169+328.033+527.913+335.699+521.296+335.331C518.352+335.168+514.006+331.885+512.886+329.164C508.819+319.288+518.331+306.738+523.539+299.448C527.635+293.713+531.226+287.378+535.874+282.066C550.454+265.404+567.948+253.595+586.336+241.697" opacity="1" fill="#cc2323"/>
<path d="" opacity="1" fill="none"/>
</g>
<g opacity="1">
<path d="M711.929+293.841C712.49+292.159+712.357+290.048+713.611+288.795C715.689+286.716+725.52+284.381+727.628+283.748C733.235+282.066+738.796+280.224+744.449+278.702C755.76+275.657+768.065+273.583+779.772+273.095C786.103+272.832+792.52+273.581+798.835+273.095C816.773+271.716+834.049+269.731+852.1+269.731" opacity="1" fill="#cc2323"/>
<path d="" opacity="1" fill="none"/>
</g>
<g opacity="1">
<path d="M878.452+318.511C885.076+316.303+891.201+316.483+898.076+315.147C920.406+310.805+940.18+305.792+961.994+315.707" opacity="1" fill="#cc2323"/>
<path d="" opacity="1" fill="none"/>
</g>
<g opacity="1">
<path d="M811.17+568.015C809.862+566.707+807.461+565.928+807.245+564.091C807.001+562.015+809.02+560.303+810.049+558.484C811.452+556+812.952+553.568+814.534+551.195C821.193+541.206+828.491+531.639+836.401+522.6" opacity="1" fill="#cc2323"/>
<path d="" opacity="1" fill="none"/>
</g>
<g opacity="1">
<path d="M431.026+192.357C437.851+186.385+445.223+186.372+454.014+183.947C463.387+181.361+472.017+177.045+480.927+173.294C489.87+169.528+498.668+165.29+507.84+162.08C525.156+156.019+543.236+152.33+560.544+146.381C582.356+138.883+604.006+131.349+627.266+129.56C631.438+129.239+641.154+128.209+645.207+129.56C646.98+130.151+647.827+132.815+649.693+132.924C651.614+133.037+652.984+130.911+654.739+130.121C659.108+128.155+663.693+126.712+668.195+125.075C671.434+123.897+675.101+124.144+678.288+122.832C683.55+120.665+688.272+115.469+693.426+112.74C701.276+108.584+711.217+106.147+719.778+103.769C743.62+97.1461+770.807+93.9001+795.471+91.4337C803.213+90.6595+810.786+89.2811+818.459+88.0696C823.377+87.2931+828.884+87.6597+833.597+85.8269C838.884+83.771+842.631+80.2012+848.175+78.538C853.886+76.8249+859.266+76.9408+864.996+75.7346C872.325+74.1916+879.572+71.8636+886.862+70.1277C894.537+68.3005+902.23+67.9285+909.85+65.6423C918.718+62.982+926.957+57.7493+935.642+54.4286C961.661+44.48+989.676+39.2901+1017.5+39.2901" opacity="1" fill="#cc2323"/>
<path d="" opacity="1" fill="none"/>
</g>
<g opacity="1">
<path d="M228.058+603.338C229.74+603.899+232.023+603.615+233.105+605.02C235.282+607.851+233.49+612.179+234.226+615.673C235.44+621.439+237.262+627.12+241.515+631.373C245.897+635.755+251.021+637.039+254.411+642.586C261.202+653.7+263.519+667.008+271.792+677.349C278.021+685.136+284.232+691.349+288.052+700.897C295.131+718.596+297.802+737.607+304.872+755.284C305.311+756.38+307.53+764.682+308.236+765.937C313.469+775.239+323.658+776.731+332.346+781.075C338.077+783.941+343.333+787.982+349.166+790.607C354.576+793.041+355.97+792.098+360.38+796.214C363.183+798.83+365.039+802.497+368.229+804.624C371.707+806.942+376.1+807.723+379.443+810.231C382.3+812.373+384.48+815.309+386.732+818.08C389.159+821.067+390.388+824.856+392.339+828.173C395.116+832.895+399.771+836.28+402.431+841.068C404.302+844.437+404.085+849.108+406.917+851.721C409.697+854.288+414.377+853.615+417.57+855.646C425.991+861.006+431.388+870.401+438.876+876.952" opacity="1" fill="#cc2323"/>
<path d="" opacity="1" fill="none"/>
</g>
<g opacity="1">
<path d="M543.163+573.622C541.294+573.435+539.425+572.875+537.556+573.061C535.614+573.256+533.849+575.19+531.949+574.744C527.314+573.653+527.784+568.97+527.464+565.773C526.599+557.123+525.64+546.778+528.024+538.299C532.402+522.733+541.766+508.877+549.891+495.126C555.733+485.24+560.932+475.172+567.833+465.971" opacity="1" fill="#cc2323"/>
<path d="" opacity="1" fill="none"/>
</g>
<g opacity="1">
<path d="M514.568+511.386C517.176+523.122+507.279+528.954+498.308+534.935C495.624+536.724+491.961+539.704+488.216+538.299C480.344+535.347+489.064+515.572+491.019+510.265C496.571+495.196+510.279+486.772+522.978+478.306C530.234+473.468+536.402+469.763+544.845+467.653" opacity="1" fill="#cc2323"/>
<path d="" opacity="1" fill="none"/>
</g>
<g opacity="1">
<path d="M521.296+515.311C523.165+516.059+525.341+516.284+526.903+517.554C528.472+518.829+529.213+520.875+530.267+522.6C531.271+524.242+531.146+527.646+533.071+527.646C534.794+527.646+532.121+524.314+531.949+522.6C531.745+520.554+531.851+518.486+531.949+516.432C532.213+510.887+533.333+505.611+534.192+500.173C534.485+498.317+533.832+496.203+534.753+494.566C535.669+492.937+539.238+489.333+539.238+491.202C539.238+493.744+536.399+495.432+534.753+497.369C533.212+499.182+531.34+500.686+529.706+502.415C528.161+504.051+523.421+506.111+525.221+507.461C527.227+508.966+529.847+505.464+531.949+504.097C533.615+503.015+534.901+501.435+536.435+500.173C543.324+494.499+550.5+489.29+557.18+483.352" opacity="1" fill="#cc2323"/>
<path d="" opacity="1" fill="none"/>
</g>
<g opacity="1">
<path d="M528.024+503.537C528.024+501.668+527.33+499.665+528.024+497.93C529.749+493.619+533.713+490.559+536.995+487.277C545.691+478.581+555.734+473.181+567.272+469.335" opacity="1" fill="#cc2323"/>
<path d="" opacity="1" fill="none"/>
</g>
<g opacity="1">
<path d="M217.405+254.593C223.086+261.221+229.88+265.709+237.59+269.731C242.552+272.32+250.489+275.022+253.85+279.824C256.924+284.216+257.417+291.733+260.017+296.644C263.101+302.468+266.94+304.942+268.428+311.783C269.822+318.195+268.651+325.061+270.67+331.407C273.561+340.492+279.884+347.034+282.445+356.637C286.045+370.139+284.585+386.105+285.809+399.81C286.697+409.762+288.368+419.629+289.734+429.526" opacity="1" fill="#cc2323"/>
<path d="" opacity="1" fill="none"/>
</g>
<g opacity="1">
<path d="M437.754+165.444C437.007+163.762+437.079+161.363+435.512+160.398C434.07+159.511+431.81+159.931+430.465+160.959C428.324+162.596+427.475+165.444+425.98+167.687C424.111+170.49+422.15+173.234+420.373+176.097C415.348+184.194+405.807+201.932+408.599+211.981C411.304+221.72+426.488+224.977+433.829+230.483C436.586+232.551+439.063+234.969+441.679+237.212" opacity="1" fill="#cc2323"/>
<path d="" opacity="1" fill="none"/>
</g>
<g opacity="1">
<path d="M696.23+37.0474C695.669+35.1784+696.499+31.4405+694.548+31.4405C692.679+31.4405+694.283+35.1972+694.548+37.0474C695.562+44.1514+700.109+50.1658+705.201+54.9893C714.996+64.269+726.509+65.4101+739.402+64.5209C753.774+63.5298+767.599+59.0741+782.014+58.3534C797.359+57.5861+812.606+59.2858+827.99+58.3534C846.179+57.251+865.036+53.8412+879.573+66.7636" opacity="1" fill="#cc2323"/>
<path d="" opacity="1" fill="none"/>
</g>
<g opacity="1">
<path d="M928.914+180.022C930.596+179.835+932.419+178.761+933.96+179.461C936.857+180.778+938.903+183.478+941.249+185.629C946.845+190.759+948.532+191.66+950.22+199.085C952.634+209.71+941.232+227.22+936.202+235.53C933.812+239.479+931.276+243.338+928.914+247.304C926.042+252.123+923.296+257.016+920.503+261.882C915.713+270.226+910.988+278.61+906.486+287.113" opacity="1" fill="#cc2323"/>
<path d="" opacity="1" fill="none"/>
</g>
<g opacity="1">
<path d="M109.754+722.764C122.086+728.245+139.614+734.649+145.077+748.556C146.886+753.161+146.91+758.281+147.881+763.133" opacity="1" fill="#cc2323"/>
<path d="" opacity="1" fill="none"/>
</g>
<g opacity="1">
<path d="M122.089+848.918C113.182+863.764+109.56+879.613+106.951+896.576C106.633+898.641+105.621+900.665+105.829+902.744C106.012+904.575+107.324+906.108+108.072+907.79" opacity="1" fill="#cc2323"/>
<path d="" opacity="1" fill="none"/>
</g>
<g opacity="1">
<path d="M622.219+714.915C621.093+714.211+613.809+710.126+613.809+708.186C613.809+706.158+620.145+700.987+621.659+699.776C628.266+694.49+635.313+690.412+642.965+686.88" opacity="1" fill="#cc2323"/>
<path d="" opacity="1" fill="none"/>
</g>
<g opacity="1">
<path d="M764.633+893.773C763.325+892.651+760.936+892.117+760.708+890.409C760.348+887.703+769.478+878.018+771.361+876.392C773.88+874.217+776.594+872.28+779.211+870.224" opacity="1" fill="#cc5123"/>
<path d="" opacity="1" fill="none"/>
</g>
<g opacity="1">
<path d="M761.83+929.657C760.521+928.535+759.555+925.797+757.905+926.292C756.207+926.802+757.092+929.793+756.223+931.339C755.378+932.84+753.987+933.961+752.859+935.263C745.242+944.052+734.293+960.82+723.143+963.298" opacity="1" fill="#cc2323"/>
<path d="" opacity="1" fill="none"/>
</g>
<g opacity="1">
<path d="M654.739+934.703C643.738+937.147+635.685+951.667+630.63+961.055" opacity="1" fill="#cc2323"/>
<path d="" opacity="1" fill="none"/>
</g>
<g opacity="1">
<path d="M388.414+881.438C389.535+883.68+390.657+885.923+391.778+888.166" opacity="1" fill="#cc2323"/>
<path d="" opacity="1" fill="none"/>
</g>
<g opacity="1">
<path d="M221.33+899.94C219.835+899.006+218.593+896.909+216.845+897.137C213.694+897.548+210.82+899.523+208.434+901.622C201.788+907.471+198.398+916.772+191.053+922.368C184.615+927.273+176.363+929.619+168.626+931.339" opacity="1" fill="#cc2323"/>
<path d="" opacity="1" fill="none"/>
</g>
<g opacity="1">
<path d="M302.069+850.6C310.927+851.584+317.024+847.391+325.617+846.675" opacity="1" fill="#cc2323"/>
<path d="" opacity="1" fill="none"/>
</g>
<g opacity="1">
<path d="M793.789+879.756C792.107+879.943+789.63+878.875+788.743+880.316C787.563+882.233+788.657+884.889+789.303+887.045C790.522+891.107+795.62+894.724+798.274+897.137" opacity="1" fill="#cc2323"/>
<path d="" opacity="1" fill="none"/>
</g>
<g opacity="1">
<path d="M821.262+853.964C823.702+857.101+826.302+860.126+829.112+862.935" opacity="1" fill="#cc2323"/>
<path d="" opacity="1" fill="none"/>
</g>
<g opacity="1">
<path d="M761.755+405.082C775.969+421.16+799.677+438.336+807.556+458.496C814.206+475.511+813.647+494.921+811.504+512.768C810.512+521.031+809.349+522.141+809.503+530.32C809.777+544.98+815.074+558.893+812.715+573.406" opacity="1" fill="#cc2323"/>
<path d="" opacity="1" fill="none"/>
</g>
</g>
</svg>
